<svg width="50" height="50" viewBox="0 0 50 50" fill="none" xmlns="http://www.w3.org/2000/svg">
<path d="M24.6445 1.43359C11.6133 1.43359 1.04688 12 1.04688 25.0312C1.04688 33.1133 5.11328 40.2461 11.3086 44.5C13.3359 45.5938 15.543 46.3867 17.875 46.8281C17.8789 46.8281 17.8789 46.8281 17.8789 46.8281C19.2617 47.0898 20.6836 47.2266 22.1406 47.2266C34.7773 47.2266 45.0547 36.9453 45.0547 24.3086C45.0547 23.9336 45.3633 23.625 45.7383 23.625C46.1133 23.625 46.4219 23.9336 46.4219 24.3086C46.4219 34.6992 39.8594 43.5859 30.6641 47.043C30.6641 47.0469 30.6602 47.0469 30.6562 47.0469C28.2656 47.9453 25.6953 48.4805 23.0195 48.5742C23.5547 48.6094 24.0977 48.6289 24.6445 48.6289C37.6797 48.6289 48.2422 38.0664 48.2422 25.0312C48.2422 12 37.6797 1.43359 24.6445 1.43359ZM33.5 28.9688H28.582V33.8867C28.582 35.8828 26.8203 37.5 24.6445 37.5C22.4727 37.5 20.7109 35.8828 20.7109 33.8867V28.9688H15.793C13.793 28.9688 12.1758 27.207 12.1758 25.0312C12.1758 22.8594 13.793 21.0938 15.793 21.0938H20.7109V16.1758C20.7109 14.1797 22.4727 12.5586 24.6445 12.5586C26.8203 12.5586 28.582 14.1797 28.582 16.1758V21.0938H33.5C35.4961 21.0938 37.1172 22.8594 37.1172 25.0312C37.1172 27.207 35.4961 28.9688 33.5 28.9688ZM45.2305 18.3359C44.5547 19.0117 43.457 19.0117 42.7812 18.3359C42.1055 17.6602 42.1055 16.5625 42.7812 15.8867C43.457 15.2109 44.5547 15.2109 45.2305 15.8867C45.9062 16.5625 45.9062 17.6602 45.2305 18.3359Z" fill="#87E2FF"/>
<path d="M24.6445 0.65625C11.207 0.65625 0.269531 11.5898 0.269531 25.0312C0.269531 30.5742 2.12891 35.6914 5.25781 39.7891C5.25781 39.793 5.25781 39.793 5.25781 39.793C5.26172 39.793 5.26172 39.7969 5.26562 39.8008H5.26953C6.99609 41.6836 9.03516 43.2773 11.3047 44.5H11.3086C13.3359 45.5938 15.543 46.3867 17.875 46.8281C8.58594 43.9336 1.82422 35.2578 1.82422 25.0312C1.82422 12.4492 12.0625 2.21094 24.6445 2.21094C37.2266 2.21094 47.4648 12.4492 47.4648 25.0312C47.4648 35.5312 40.3359 44.3984 30.6641 47.0469C30.6641 47.0469 30.6602 47.0469 30.6562 47.0469C28.2656 47.9453 25.6953 48.4805 23.0156 48.5742C22.7266 48.5859 22.4336 48.5898 22.1367 48.5898C19.9609 48.5898 17.8477 48.3008 15.8398 47.7617C18.5703 48.8242 21.543 49.4102 24.6445 49.4102C38.0859 49.4102 49.0234 38.4727 49.0234 25.0312C49.0234 11.5898 38.0859 0.65625 24.6445 0.65625Z" fill="#87E2FF"/>
</svg>
